# Blender v2.77 (sub 0) OBJ File: 'sword finish.blend'
# www.blender.org
mtllib sword finish.mtl
o Cylinder
v 0.039552 0.713888 -1.050106
v 0.039552 0.513888 -1.100106
v 0.029797 0.713888 -1.051067
v 0.020417 0.713888 -1.053912
v 0.011773 0.713888 -1.058532
v 0.004196 0.713888 -1.064750
v -0.002022 0.713888 -1.072327
v -0.006642 0.713888 -1.080971
v -0.009488 0.713888 -1.090351
v -0.010448 0.713888 -1.100106
v -0.009488 0.713888 -1.109860
v -0.006642 0.713888 -1.119240
v -0.002022 0.713888 -1.127884
v 0.004196 0.713888 -1.135461
v 0.011773 0.713888 -1.141679
v 0.020417 0.713888 -1.146300
v 0.029797 0.713888 -1.149145
v 0.039552 0.713888 -1.150106
v 0.049306 0.713888 -1.149145
v 0.058686 0.713888 -1.146300
v 0.067330 0.713888 -1.141679
v 0.074907 0.713888 -1.135461
v 0.081125 0.713888 -1.127884
v 0.085746 0.713888 -1.119240
v 0.088591 0.713888 -1.109860
v 0.089552 0.713888 -1.100106
v 0.088591 0.713888 -1.090351
v 0.085746 0.713888 -1.080971
v 0.081125 0.713888 -1.072327
v 0.074907 0.713888 -1.064750
v 0.067330 0.713888 -1.058532
v 0.058686 0.713888 -1.053912
v 0.049306 0.713888 -1.051067
v 0.039552 1.005553 -1.070106
v 0.039552 0.705554 -1.070106
v 0.033699 0.705554 -1.070682
v 0.033699 1.005553 -1.070682
v 0.028071 0.705554 -1.072389
v 0.028071 1.005553 -1.072389
v 0.022884 0.705554 -1.075162
v 0.022884 1.005553 -1.075162
v 0.018338 0.705554 -1.078892
v 0.018338 1.005553 -1.078892
v 0.014608 0.705554 -1.083439
v 0.014608 1.005553 -1.083439
v 0.011835 0.705554 -1.088625
v 0.011835 1.005553 -1.088625
v 0.010128 0.705554 -1.094253
v 0.010128 1.005553 -1.094253
v 0.009552 0.705554 -1.100106
v 0.009552 1.005553 -1.100106
v 0.010128 0.705554 -1.105958
v 0.010128 1.005553 -1.105958
v 0.011835 0.705554 -1.111586
v 0.011835 1.005553 -1.111586
v 0.014608 0.705554 -1.116773
v 0.014608 1.005553 -1.116773
v 0.018338 0.705554 -1.121319
v 0.018338 1.005553 -1.121319
v 0.022884 0.705554 -1.125050
v 0.022884 1.005553 -1.125050
v 0.028071 0.705554 -1.127822
v 0.028071 1.005553 -1.127822
v 0.033699 0.705554 -1.129529
v 0.033699 1.005553 -1.129529
v 0.039552 0.705554 -1.130106
v 0.039552 1.005553 -1.130106
v 0.045404 0.705554 -1.129529
v 0.045404 1.005553 -1.129529
v 0.051032 0.705554 -1.127822
v 0.051032 1.005553 -1.127822
v 0.056219 0.705554 -1.125050
v 0.056219 1.005553 -1.125050
v 0.060765 0.705554 -1.121319
v 0.060765 1.005553 -1.121319
v 0.064496 0.705554 -1.116773
v 0.064496 1.005553 -1.116773
v 0.067268 0.705554 -1.111586
v 0.067268 1.005553 -1.111586
v 0.068975 0.705554 -1.105958
v 0.068975 1.005553 -1.105958
v 0.069552 0.705554 -1.100106
v 0.069552 1.005553 -1.100106
v 0.068975 0.705554 -1.094253
v 0.068975 1.005553 -1.094253
v 0.067268 0.705554 -1.088625
v 0.067268 1.005553 -1.088625
v 0.064496 0.705554 -1.083439
v 0.064496 1.005553 -1.083438
v 0.060765 0.705554 -1.078892
v 0.060765 1.005553 -1.078892
v 0.056219 0.705554 -1.075162
v 0.056219 1.005553 -1.075162
v 0.051032 0.705554 -1.072389
v 0.051032 1.005553 -1.072389
v 0.045404 0.705554 -1.070682
v 0.045404 1.005553 -1.070682
v -0.035331 2.053169 -1.096161
v -0.010331 2.053169 -1.121161
v -0.015331 1.053169 -1.121161
v -0.040331 1.053169 -1.096161
v 0.034669 2.053169 -1.126161
v 0.079669 2.053169 -1.121161
v 0.084669 1.053169 -1.121161
v 0.034669 1.053169 -1.123661
v 0.109669 2.053169 -1.096161
v 0.079669 2.053169 -1.071161
v 0.084669 1.053169 -1.071161
v 0.114669 1.053169 -1.096161
v 0.034669 2.053169 -1.066161
v -0.010331 2.053169 -1.071161
v -0.015331 1.053169 -1.071161
v 0.034669 1.053169 -1.068660
v 0.034669 1.053169 -1.096161
v 0.034669 3.353169 -1.096161
v 0.034669 3.253169 -1.121161
v 0.004669 3.123169 -1.121161
v -0.030331 3.053169 -1.096161
v 0.034669 3.253169 -1.071161
v 0.004669 3.123169 -1.071161
v 0.064669 3.123169 -1.071161
v 0.104669 3.053169 -1.096161
v 0.064669 3.123169 -1.121161
v -0.201065 1.028701 -1.050937
v -0.201065 1.037531 -1.051807
v -0.201065 1.046021 -1.054382
v -0.201065 1.053846 -1.058565
v -0.201065 1.060704 -1.064193
v -0.201065 1.066333 -1.071052
v -0.201065 1.070515 -1.078877
v -0.201065 1.073091 -1.087367
v -0.201065 1.073961 -1.096197
v -0.382103 1.028701 -1.096197
v -0.201065 1.073091 -1.105026
v -0.201065 1.070515 -1.113517
v -0.201065 1.066333 -1.121342
v -0.201065 1.060704 -1.128200
v -0.201065 1.053846 -1.133829
v -0.201065 1.046021 -1.138011
v -0.201065 1.037531 -1.140587
v -0.201065 1.028701 -1.141456
v -0.201065 1.019871 -1.140587
v -0.201065 1.011381 -1.138011
v -0.201065 1.003556 -1.133829
v -0.201065 0.996698 -1.128200
v -0.201065 0.991069 -1.121342
v -0.201065 0.986887 -1.113517
v -0.201065 0.984311 -1.105026
v -0.201065 0.983441 -1.096197
v -0.201065 0.984311 -1.087367
v -0.201065 0.986887 -1.078877
v -0.201065 0.991069 -1.071052
v -0.201065 0.996698 -1.064193
v -0.201065 1.003556 -1.058565
v -0.201065 1.011381 -1.054382
v -0.201065 1.019871 -1.051807
v 0.249183 1.028701 -1.141456
v 0.249183 1.019871 -1.140587
v 0.249183 1.011381 -1.138011
v 0.249183 1.003556 -1.133829
v 0.249183 0.996698 -1.128200
v 0.249183 0.991069 -1.121342
v 0.249183 0.986887 -1.113517
v 0.249183 0.984311 -1.105026
v 0.249183 0.983442 -1.096197
v 0.430221 1.028701 -1.096197
v 0.249183 0.984311 -1.087367
v 0.249183 0.986887 -1.078877
v 0.249183 0.991069 -1.071052
v 0.249183 0.996698 -1.064193
v 0.249183 1.003556 -1.058565
v 0.249183 1.011381 -1.054382
v 0.249183 1.019871 -1.051807
v 0.249183 1.028701 -1.050937
v 0.249183 1.037531 -1.051807
v 0.249183 1.046021 -1.054382
v 0.249183 1.053846 -1.058565
v 0.249183 1.060704 -1.064193
v 0.249183 1.066333 -1.071052
v 0.249183 1.070516 -1.078877
v 0.249183 1.073091 -1.087367
v 0.249183 1.073961 -1.096197
v 0.249183 1.073091 -1.105026
v 0.249183 1.070516 -1.113517
v 0.249183 1.066333 -1.121342
v 0.249183 1.060704 -1.128200
v 0.249183 1.053846 -1.133829
v 0.249183 1.046021 -1.138011
v 0.249183 1.037531 -1.140587
v -0.200190 1.006071 -1.118827
v -0.200190 1.006071 -1.073567
v -0.200190 1.051331 -1.073567
v -0.200190 1.051331 -1.118827
v 0.252406 1.006071 -1.118827
v 0.252406 1.006071 -1.073567
v 0.252406 1.051331 -1.073567
v 0.252406 1.051331 -1.118827
vn 0.0951 0.2414 -0.9657
vn 0.2817 0.2414 -0.9286
vn 0.4575 0.2414 -0.8558
vn 0.6156 0.2414 -0.7502
vn 0.7502 0.2414 -0.6156
vn 0.8558 0.2414 -0.4575
vn 0.9286 0.2414 -0.2817
vn 0.9657 0.2414 -0.0951
vn 0.9657 0.2414 0.0951
vn 0.9286 0.2414 0.2817
vn 0.8558 0.2414 0.4574
vn 0.7501 0.2414 0.6156
vn 0.6156 0.2414 0.7501
vn 0.4575 0.2414 0.8558
vn 0.2817 0.2414 0.9286
vn 0.0951 0.2414 0.9657
vn -0.0951 0.2414 0.9657
vn -0.2817 0.2414 0.9286
vn -0.4575 0.2414 0.8558
vn -0.6156 0.2414 0.7501
vn -0.7501 0.2414 0.6156
vn -0.8558 0.2414 0.4574
vn -0.9286 0.2414 0.2817
vn -0.9657 0.2414 0.0951
vn -0.9657 0.2414 -0.0951
vn -0.9286 0.2414 -0.2817
vn -0.8558 0.2414 -0.4575
vn -0.7501 0.2414 -0.6156
vn -0.6156 0.2414 -0.7501
vn -0.4575 0.2414 -0.8558
vn -0.2817 0.2414 -0.9286
vn -0.0951 0.2414 -0.9657
vn 0.0000 -1.0000 -0.0000
vn 0.0980 0.0000 -0.9952
vn 0.2903 0.0000 -0.9569
vn 0.4714 0.0000 -0.8819
vn 0.6344 0.0000 -0.7730
vn 0.7730 0.0000 -0.6344
vn 0.8819 0.0000 -0.4714
vn 0.9569 0.0000 -0.2903
vn 0.9952 0.0000 -0.0980
vn 0.9952 0.0000 0.0980
vn 0.9569 -0.0000 0.2903
vn 0.8819 -0.0000 0.4714
vn 0.7730 -0.0000 0.6344
vn 0.6344 -0.0000 0.7730
vn 0.4714 -0.0000 0.8819
vn 0.2903 0.0000 0.9569
vn 0.0980 -0.0000 0.9952
vn -0.0980 -0.0000 0.9952
vn -0.2903 0.0000 0.9569
vn -0.4714 -0.0000 0.8819
vn -0.6344 -0.0000 0.7730
vn -0.7730 -0.0000 0.6344
vn -0.8819 -0.0000 0.4714
vn -0.9569 -0.0000 0.2903
vn -0.9952 0.0000 0.0980
vn -0.9952 0.0000 -0.0980
vn -0.9569 0.0000 -0.2903
vn -0.8819 0.0000 -0.4714
vn -0.7730 0.0000 -0.6344
vn -0.6344 0.0000 -0.7730
vn -0.4714 0.0000 -0.8819
vn 0.0000 1.0000 0.0000
vn -0.2903 0.0000 -0.9569
vn -0.0980 0.0000 -0.9952
vn -0.7071 0.0035 -0.7071
vn 0.0787 -0.0010 -0.9969
vn 0.6402 0.0032 0.7682
vn -0.0787 -0.0010 0.9969
vn -0.7577 0.1674 -0.6308
vn -0.7577 0.1674 0.6308
vn 0.7185 0.1671 0.6751
vn 0.7185 0.1671 -0.6751
vn 0.0787 -0.0010 0.9969
vn 0.0711 0.0027 0.9975
vn -0.0711 0.0027 0.9975
vn 0.6402 0.0032 -0.7682
vn 0.5850 0.0057 -0.8110
vn 0.5850 0.0057 0.8110
vn -0.0787 -0.0010 -0.9969
vn -0.0711 0.0027 -0.9975
vn 0.0711 0.0027 -0.9975
vn -0.7071 0.0035 0.7071
vn -0.6444 0.0062 0.7646
vn -0.6444 0.0062 -0.7646
vn 0.2414 -0.0951 -0.9657
vn 0.2414 -0.2817 -0.9286
vn 0.2414 -0.4575 -0.8558
vn 0.2414 -0.6156 -0.7501
vn 0.2414 -0.7501 -0.6156
vn 0.2414 -0.8558 -0.4574
vn 0.2414 -0.9286 -0.2817
vn 0.2414 -0.9657 -0.0951
vn 0.2414 -0.9657 0.0951
vn 0.2414 -0.9286 0.2817
vn 0.2414 -0.8558 0.4574
vn 0.2414 -0.7501 0.6156
vn 0.2414 -0.6156 0.7501
vn 0.2414 -0.4575 0.8558
vn 0.2414 -0.2817 0.9286
vn 0.2414 -0.0951 0.9657
vn 0.2414 0.0951 0.9657
vn 0.2414 0.2817 0.9286
vn 0.2414 0.4574 0.8558
vn 0.2414 0.6156 0.7501
vn 0.2414 0.7501 0.6156
vn 0.2414 0.8558 0.4575
vn 0.2414 0.9286 0.2817
vn 0.2414 0.9657 0.0951
vn 0.2414 0.9657 -0.0951
vn 0.2414 0.9286 -0.2817
vn 0.2414 0.8558 -0.4575
vn 0.2414 0.7501 -0.6156
vn 0.2414 0.6156 -0.7502
vn 0.2414 0.4575 -0.8558
vn 0.2414 0.2817 -0.9286
vn 0.2414 0.0951 -0.9657
vn -1.0000 -0.0000 0.0000
vn 0.2414 -0.8558 -0.4575
vn 0.2414 -0.8558 0.4575
vn 0.2414 -0.6156 0.7502
vn 0.2414 0.4575 0.8558
vn 0.2414 0.8558 0.4574
vn 0.2414 0.8558 -0.4574
vn 0.2414 0.6156 -0.7501
vn 1.0000 0.0000 0.0000
vn 0.0000 0.0000 1.0000
vn 0.0000 0.0000 -1.0000
usemtl None.001
s 1
f 1//1 2//1 3//1
f 3//2 2//2 4//2
f 4//3 2//3 5//3
f 5//4 2//4 6//4
f 6//5 2//5 7//5
f 7//6 2//6 8//6
f 8//7 2//7 9//7
f 9//8 2//8 10//8
f 10//9 2//9 11//9
f 11//10 2//10 12//10
f 12//11 2//11 13//11
f 13//12 2//12 14//12
f 14//13 2//13 15//13
f 15//14 2//14 16//14
f 16//15 2//15 17//15
f 17//16 2//16 18//16
f 18//17 2//17 19//17
f 19//18 2//18 20//18
f 20//19 2//19 21//19
f 21//20 2//20 22//20
f 22//21 2//21 23//21
f 23//22 2//22 24//22
f 24//23 2//23 25//23
f 25//24 2//24 26//24
f 26//25 2//25 27//25
f 27//26 2//26 28//26
f 28//27 2//27 29//27
f 29//28 2//28 30//28
f 30//29 2//29 31//29
f 31//30 2//30 32//30
f 32//31 2//31 33//31
f 33//32 2//32 1//32
f 1//33 3//33 4//33 5//33 6//33 7//33 8//33 9//33 10//33 11//33 12//33 13//33 14//33 15//33 16//33 17//33 18//33 19//33 20//33 21//33 22//33 23//33 24//33 25//33 26//33 27//33 28//33 29//33 30//33 31//33 32//33 33//33
f 34//34 35//34 36//34 37//34
f 37//35 36//35 38//35 39//35
f 39//36 38//36 40//36 41//36
f 41//37 40//37 42//37 43//37
f 43//38 42//38 44//38 45//38
f 45//39 44//39 46//39 47//39
f 47//40 46//40 48//40 49//40
f 49//41 48//41 50//41 51//41
f 51//42 50//42 52//42 53//42
f 53//43 52//43 54//43 55//43
f 55//44 54//44 56//44 57//44
f 57//45 56//45 58//45 59//45
f 59//46 58//46 60//46 61//46
f 61//47 60//47 62//47 63//47
f 63//48 62//48 64//48 65//48
f 65//49 64//49 66//49 67//49
f 67//50 66//50 68//50 69//50
f 69//51 68//51 70//51 71//51
f 71//52 70//52 72//52 73//52
f 73//53 72//53 74//53 75//53
f 75//54 74//54 76//54 77//54
f 77//55 76//55 78//55 79//55
f 79//56 78//56 80//56 81//56
f 81//57 80//57 82//57 83//57
f 83//58 82//58 84//58 85//58
f 85//59 84//59 86//59 87//59
f 87//60 86//60 88//60 89//60
f 89//61 88//61 90//61 91//61
f 91//62 90//62 92//62 93//62
f 93//63 92//63 94//63 95//63
f 36//64 35//64 96//64 94//64 92//64 90//64 88//64 86//64 84//64 82//64 80//64 78//64 76//64 74//64 72//64 70//64 68//64 66//64 64//64 62//64 60//64 58//64 56//64 54//64 52//64 50//64 48//64 46//64 44//64 42//64 40//64 38//64
f 95//65 94//65 96//65 97//65
f 97//66 96//66 35//66 34//66
f 34//33 37//33 39//33 41//33 43//33 45//33 47//33 49//33 51//33 53//33 55//33 57//33 59//33 61//33 63//33 65//33 67//33 69//33 71//33 73//33 75//33 77//33 79//33 81//33 83//33 85//33 87//33 89//33 91//33 93//33 95//33 97//33
usemtl None
f 98//67 99//67 100//67 101//67
f 102//68 103//68 104//68 105//68
f 106//69 107//69 108//69 109//69
f 110//70 111//70 112//70 113//70
f 114//33 105//33 104//33 109//33
f 115//71 116//71 117//71 118//71
f 119//72 115//72 118//72 120//72
f 121//73 122//73 115//73 119//73
f 122//74 123//74 116//74 115//74
f 113//33 114//33 109//33 108//33
f 112//33 101//33 114//33 113//33
f 101//33 100//33 105//33 114//33
f 107//75 110//75 113//75 108//75
f 121//76 119//76 110//76 107//76
f 119//77 120//77 111//77 110//77
f 103//78 106//78 109//78 104//78
f 123//79 122//79 106//79 103//79
f 122//80 121//80 107//80 106//80
f 99//81 102//81 105//81 100//81
f 117//82 116//82 102//82 99//82
f 116//83 123//83 103//83 102//83
f 111//84 98//84 101//84 112//84
f 120//85 118//85 98//85 111//85
f 118//86 117//86 99//86 98//86
usemtl Material
s off
f 124//87 133//87 125//87
f 125//88 133//88 126//88
f 126//89 133//89 127//89
f 127//90 133//90 128//90
f 128//91 133//91 129//91
f 129//92 133//92 130//92
f 130//93 133//93 131//93
f 131//94 133//94 132//94
f 132//95 133//95 134//95
f 134//96 133//96 135//96
f 135//97 133//97 136//97
f 136//98 133//98 137//98
f 137//99 133//99 138//99
f 138//100 133//100 139//100
f 139//101 133//101 140//101
f 140//102 133//102 141//102
f 141//103 133//103 142//103
f 142//104 133//104 143//104
f 143//105 133//105 144//105
f 144//106 133//106 145//106
f 145//107 133//107 146//107
f 146//108 133//108 147//108
f 147//109 133//109 148//109
f 148//110 133//110 149//110
f 149//111 133//111 150//111
f 150//112 133//112 151//112
f 151//113 133//113 152//113
f 152//114 133//114 153//114
f 153//115 133//115 154//115
f 154//116 133//116 155//116
f 155//117 133//117 156//117
f 156//118 133//118 124//118
f 124//119 125//119 126//119 127//119 128//119 129//119 130//119 131//119 132//119 134//119 135//119 136//119 137//119 138//119 139//119 140//119 141//119 142//119 143//119 144//119 145//119 146//119 147//119 148//119 149//119 150//119 151//119 152//119 153//119 154//119 155//119 156//119
f 157//87 166//87 158//87
f 158//88 166//88 159//88
f 159//89 166//89 160//89
f 160//90 166//90 161//90
f 161//91 166//91 162//91
f 162//120 166//120 163//120
f 163//93 166//93 164//93
f 164//94 166//94 165//94
f 165//95 166//95 167//95
f 167//96 166//96 168//96
f 168//121 166//121 169//121
f 169//98 166//98 170//98
f 170//122 166//122 171//122
f 171//100 166//100 172//100
f 172//101 166//101 173//101
f 173//102 166//102 174//102
f 174//103 166//103 175//103
f 175//104 166//104 176//104
f 176//123 166//123 177//123
f 177//106 166//106 178//106
f 178//107 166//107 179//107
f 179//124 166//124 180//124
f 180//109 166//109 181//109
f 181//110 166//110 182//110
f 182//111 166//111 183//111
f 183//112 166//112 184//112
f 184//125 166//125 185//125
f 185//114 166//114 186//114
f 186//126 166//126 187//126
f 187//116 166//116 188//116
f 188//117 166//117 189//117
f 189//118 166//118 157//118
f 157//119 158//119 159//119 160//119 161//119 162//119 163//119 164//119 165//119 167//119 168//119 169//119 170//119 171//119 172//119 173//119 174//119 175//119 176//119 177//119 178//119 179//119 180//119 181//119 182//119 183//119 184//119 185//119 186//119 187//119 188//119 189//119
f 190//119 191//119 192//119 193//119
f 194//127 197//127 196//127 195//127
f 190//33 194//33 195//33 191//33
f 191//128 195//128 196//128 192//128
f 192//64 196//64 197//64 193//64
f 194//129 190//129 193//129 197//129
