# Blender v2.77 (sub 0) OBJ File: 'knife.blend'
# www.blender.org
mtllib knife.mtl
o Cylinder
v 0.003260 3.538429 -2.398938
v 0.003260 4.178430 -2.398938
v 0.014185 3.538429 -2.397401
v 0.014185 4.178430 -2.397401
v 0.024690 3.538429 -2.392848
v 0.024690 4.178430 -2.392848
v 0.034372 3.538429 -2.385456
v 0.034372 4.178430 -2.385456
v 0.042858 3.538429 -2.375507
v 0.042858 4.178430 -2.375507
v 0.049822 3.538429 -2.363384
v 0.049822 4.178430 -2.363384
v 0.054997 3.538429 -2.349553
v 0.054997 4.178430 -2.349553
v 0.058184 3.538429 -2.334545
v 0.058184 4.178430 -2.334545
v 0.059260 3.538429 -2.318938
v 0.059260 4.178430 -2.318938
v 0.058184 3.538429 -2.303331
v 0.058184 4.178430 -2.303331
v 0.054997 3.538429 -2.288323
v 0.054997 4.178430 -2.288323
v 0.049822 3.538429 -2.274493
v 0.049822 4.178430 -2.274493
v 0.042858 3.538429 -2.262369
v 0.042858 4.178430 -2.262369
v 0.034372 3.538429 -2.252420
v 0.034372 4.178430 -2.252420
v 0.024690 3.538429 -2.245028
v 0.024690 4.178430 -2.245028
v 0.014185 3.538429 -2.240475
v 0.014185 4.178430 -2.240475
v 0.003260 3.538429 -2.238938
v 0.003260 4.178430 -2.238938
v -0.007665 3.538429 -2.240475
v -0.007665 4.178430 -2.240475
v -0.018170 3.538429 -2.245028
v -0.018170 4.178430 -2.245028
v -0.027852 3.538429 -2.252420
v -0.027852 4.178430 -2.252420
v -0.036338 3.538429 -2.262370
v -0.036338 4.178430 -2.262370
v -0.043302 3.538429 -2.274493
v -0.043302 4.178430 -2.274493
v -0.048477 3.538429 -2.288323
v -0.048477 4.178430 -2.288323
v -0.051664 3.538429 -2.303331
v -0.051664 4.178430 -2.303331
v -0.052740 3.538429 -2.318938
v -0.052740 4.178430 -2.318938
v -0.051664 3.538429 -2.334545
v -0.051664 4.178430 -2.334545
v -0.048477 3.538429 -2.349553
v -0.048477 4.178430 -2.349553
v -0.043302 3.538429 -2.363384
v -0.043302 4.178430 -2.363384
v -0.036338 3.538429 -2.375507
v -0.036338 4.178430 -2.375507
v -0.027852 3.538429 -2.385456
v -0.027852 4.178430 -2.385456
v -0.018170 3.538429 -2.392848
v -0.018170 4.178430 -2.392848
v -0.007665 3.538429 -2.397401
v -0.007665 4.178430 -2.397401
vn 0.1393 0.0000 -0.9902
vn 0.3976 0.0000 -0.9175
vn 0.6069 0.0000 -0.7948
vn 0.7608 0.0000 -0.6490
vn 0.8671 0.0000 -0.4981
vn 0.9366 0.0000 -0.3504
vn 0.9782 0.0000 -0.2077
vn 0.9976 0.0000 -0.0688
vn 0.9976 0.0000 0.0688
vn 0.9782 0.0000 0.2077
vn 0.9366 0.0000 0.3504
vn 0.8671 0.0000 0.4981
vn 0.7608 0.0000 0.6490
vn 0.6069 0.0000 0.7948
vn 0.3976 0.0000 0.9175
vn 0.1393 0.0000 0.9902
vn -0.1393 0.0000 0.9902
vn -0.3976 0.0000 0.9175
vn -0.6069 0.0000 0.7948
vn -0.7608 0.0000 0.6489
vn -0.8671 0.0000 0.4981
vn -0.9366 0.0000 0.3504
vn -0.9782 0.0000 0.2077
vn -0.9976 0.0000 0.0688
vn -0.9976 0.0000 -0.0688
vn -0.9782 0.0000 -0.2077
vn -0.9366 0.0000 -0.3504
vn -0.8671 0.0000 -0.4981
vn -0.7608 0.0000 -0.6490
vn -0.6069 0.0000 -0.7948
vn 0.0000 1.0000 -0.0000
vn -0.3976 0.0000 -0.9176
vn -0.1393 0.0000 -0.9902
vn 0.0000 -1.0000 0.0000
usemtl Material.001
s off
f 1//1 2//1 4//1 3//1
f 3//2 4//2 6//2 5//2
f 5//3 6//3 8//3 7//3
f 7//4 8//4 10//4 9//4
f 9//5 10//5 12//5 11//5
f 11//6 12//6 14//6 13//6
f 13//7 14//7 16//7 15//7
f 15//8 16//8 18//8 17//8
f 17//9 18//9 20//9 19//9
f 19//10 20//10 22//10 21//10
f 21//11 22//11 24//11 23//11
f 23//12 24//12 26//12 25//12
f 25//13 26//13 28//13 27//13
f 27//14 28//14 30//14 29//14
f 29//15 30//15 32//15 31//15
f 31//16 32//16 34//16 33//16
f 33//17 34//17 36//17 35//17
f 35//18 36//18 38//18 37//18
f 37//19 38//19 40//19 39//19
f 39//20 40//20 42//20 41//20
f 41//21 42//21 44//21 43//21
f 43//22 44//22 46//22 45//22
f 45//23 46//23 48//23 47//23
f 47//24 48//24 50//24 49//24
f 49//25 50//25 52//25 51//25
f 51//26 52//26 54//26 53//26
f 53//27 54//27 56//27 55//27
f 55//28 56//28 58//28 57//28
f 57//29 58//29 60//29 59//29
f 59//30 60//30 62//30 61//30
f 4//31 2//31 64//31 62//31 60//31 58//31 56//31 54//31 52//31 50//31 48//31 46//31 44//31 42//31 40//31 38//31 36//31 34//31 32//31 30//31 28//31 26//31 24//31 22//31 20//31 18//31 16//31 14//31 12//31 10//31 8//31 6//31
f 61//32 62//32 64//32 63//32
f 63//33 64//33 2//33 1//33
f 1//34 3//34 5//34 7//34 9//34 11//34 13//34 15//34 17//34 19//34 21//34 23//34 25//34 27//34 29//34 31//34 33//34 35//34 37//34 39//34 41//34 43//34 45//34 47//34 49//34 51//34 53//34 55//34 57//34 59//34 61//34 63//34
o Hilt_Cube.002
v -0.100000 4.175637 -2.050310
v -0.100000 4.215637 -2.050310
v -0.100000 4.175637 -2.570310
v -0.100000 4.215637 -2.570310
v 0.100000 4.175637 -2.050310
v 0.100000 4.215637 -2.050310
v 0.100000 4.175637 -2.570310
v 0.100000 4.215637 -2.570310
vn -1.0000 0.0000 0.0000
vn 0.0000 0.0000 -1.0000
vn 1.0000 0.0000 0.0000
vn 0.0000 0.0000 1.0000
vn 0.0000 -1.0000 0.0000
vn 0.0000 1.0000 0.0000
usemtl Material.001
s off
f 66//35 68//35 67//35 65//35
f 68//36 72//36 71//36 67//36
f 72//37 70//37 69//37 71//37
f 70//38 66//38 65//38 69//38
f 65//39 67//39 71//39 69//39
f 70//40 72//40 68//40 66//40
o Blade_Cube.001
v 0.002686 4.216229 -2.156895
v 0.002686 5.873842 -2.181934
v -0.060953 4.216229 -2.336352
v -0.060953 5.873842 -2.336352
v 0.066326 4.216229 -2.336352
v 0.066326 5.873842 -2.336352
v 0.002686 4.216229 -2.458557
v 0.002686 5.873842 -2.458557
v 0.001780 6.354939 -2.442774
vn -0.9344 0.0027 0.3562
vn -0.8869 0.0000 -0.4619
vn 0.8869 0.0000 -0.4619
vn 0.9344 0.0027 0.3562
vn 0.0000 -1.0000 -0.0000
vn 0.8868 0.0168 -0.4618
vn -0.8869 0.0135 -0.4618
vn -0.9058 0.2007 0.3733
vn 0.9051 0.2040 0.3730
usemtl Material.002
s off
f 74//41 76//41 75//41 73//41
f 76//42 80//42 79//42 75//42
f 80//43 78//43 77//43 79//43
f 78//44 74//44 73//44 77//44
f 73//45 75//45 79//45 77//45
f 78//46 80//46 81//46
f 80//47 76//47 81//47
f 76//48 74//48 81//48
f 78//49 81//49 74//49
